<?xml version="1.0" encoding="UTF-8" standalone="no"?>
<!-- Created with Inkscape (http://www.inkscape.org/) -->
<svg
     width="176.22141mm"
     height="148.43124mm"
     viewBox="0 0 176.22141 148.43124"
     version="1.1"
     id="cometscanLogo"
     xml:space="preserve"
     inkscape:export-filename="cometscan-inkscaped.svg"
     inkscape:export-xdpi="72.07"
     inkscape:export-ydpi="72.07"
     xmlns:inkscape="http://www.inkscape.org/namespaces/inkscape"
     xmlns:sodipodi="http://sodipodi.sourceforge.net/DTD/sodipodi-0.dtd"
     xmlns:xlink="http://www.w3.org/1999/xlink"
     xmlns="http://www.w3.org/2000/svg"
     xmlns:svg="http://www.w3.org/2000/svg">
	<sodipodi:namedview
          id="namedview7"
          pagecolor="#ffffff"
          bordercolor="#000000"
          borderopacity="0.25"
          inkscape:showpageshadow="2"
          inkscape:pageopacity="0.0"
          inkscape:pagecheckerboard="0"
          inkscape:deskcolor="#d1d1d1"
          inkscape:document-units="mm"
          showgrid="false" 
     />
	<defs id="defs2" />
	<g
          inkscape:label="Layer 1"
          inkscape:groupmode="layer"
          id="layer1"
          transform="translate(-15.861496,-25.139217)"
     >
		<path
               style="fill:var(--main, #1985a1);fill-opacity:1;stroke:none;stroke-width:0.264583"
               d="m 107.67191,82.81838 -8.466668,9.789582 H 98.940659 C 94.072061,88.923111 87.17358,86.66648 81.742743,83.797867 68.525748,76.816307 55.365903,69.627314 42.055246,62.835725 c -2.449195,-1.249627 -5.112703,-2.549525 -7.9375,-2.193396 -3.468396,0.437356 -5.722752,4.474633 -4.183327,7.623968 2.081371,4.25794 9.661498,6.760369 13.708326,8.796867 11.544035,5.808926 22.83751,12.081667 34.395832,17.860696 3.568435,1.78435 7.114116,3.652308 10.583333,5.6216 1.222639,0.694 3.28877,1.33324 3.951022,2.67044 0.524669,1.05966 -0.252677,2.63578 -0.548481,3.67956 -0.75221,2.65351 -1.595702,5.4446 -1.815042,8.20208 -4.596076,-2.4503 -9.427897,-4.47569 -14.022915,-6.96092 -4.832615,-2.61355 -9.8933,-5.84306 -15.08125,-7.6708 -4.034895,-1.421604 -9.14982,2.11984 -7.409655,6.69422 1.400175,3.68089 6.820693,5.32607 10.055489,6.94452 5.422899,2.71304 10.776214,5.62769 16.139582,8.45926 3.021012,1.59517 6.59421,2.92285 9.231841,5.13027 1.572948,1.31604 1.580092,3.79016 1.992842,5.6597 0.720725,3.26311 1.862402,6.4561 3.175793,9.525 3.884613,9.07627 10.799234,17.18257 19.201604,22.36761 23.62465,14.57854 54.58089,8.12192 70.18205,-14.95927 3.08663,-4.56671 5.36892,-9.75837 6.77095,-15.08125 1.58618,-6.02271 2.02909,-13.11937 1.28799,-19.31459 -1.81081,-15.14131 -10.63201,-29.281431 -23.73682,-37.187181 -9.21147,-5.557043 -20.21205,-8.50556 -30.95625,-7.482416 -3.87985,0.369358 -7.66683,1.039283 -11.37709,2.248958 -2.15238,0.701675 -4.58205,2.189956 -6.87916,1.375833 -2.57572,-0.912547 -4.97946,-2.620433 -7.40834,-3.866091 -5.31389,-2.725737 -10.59365,-5.4991 -15.874994,-8.285956 C 79.310958,54.151836 63.192542,45.432149 46.817745,37.244724 40.862028,34.266865 35.073209,30.940391 29.090663,28.021058 26.273406,26.646294 23.367726,24.892834 20.09483,25.880095 c -3.324534,1.002829 -5.007652,5.23971 -3.298513,8.254955 1.124874,1.98448 3.185483,3.150552 5.150596,4.164938 15.88934,8.202162 31.895784,16.249517 47.624998,24.756399 7.182378,3.884348 14.513982,7.492735 21.695832,11.377083 5.209645,2.817548 10.736787,6.622785 16.404167,8.38491 m 31.22083,-6.274594 c 24.13847,-2.847974 46.01792,19.137312 47.60145,42.257924 1.62745,23.76858 -15.8152,45.66946 -39.66395,48.60766 -13.77606,1.69704 -28.09055,-2.90724 -38.08968,-12.64814 -14.140126,-13.775 -17.487634,-36.64109 -8.24256,-53.95118 2.71224,-5.078417 6.46959,-9.673171 10.87807,-13.377866 8.05022,-6.764867 17.25481,-9.6774 27.51667,-10.888398 z"
               id="path302"
          />
	</g>
</svg>
