<?xml version="1.0" encoding="utf-8"?>
<!-- Generator: Adobe Illustrator 27.5.0, SVG Export Plug-In . SVG Version: 6.00 Build 0)  -->
<svg version="1.1" xmlns="http://www.w3.org/2000/svg" xmlns:xlink="http://www.w3.org/1999/xlink" x="0px" y="0px"
	 viewBox="300 200 1600 1650" style="enable-background:new 0 0 2200 2200;" xml:space="preserve">
<!-- <g id="background">
	<rect style="fill:#fff;" width="2200" height="2200"/>
</g> -->
<g id="Objects">
	<g>
		<g>
			<path style="fill:#FFF;" d="M1823.412,1351.37c14.57-12.786,36.169,3.725,27.579,21.103
				c-154.05,311.659-501.954,495.517-860,426.943c-430.115-82.388-712.016-497.85-629.639-927.976
				c68.574-358.045,367.968-613.385,714.493-641.374c19.322-1.561,26.684,24.611,9.419,33.425
				c-175.785,89.742-309.796,256.771-349.802,465.626c-68.824,359.331,166.684,706.429,526.015,775.243
				C1470.334,1544.367,1675.061,1481.561,1823.412,1351.37z"/>
			<!-- <path style="fill:#FFBB4D;" d="M1400.077,1040.651c-51.371,6.472-63.44,18.54-69.911,69.911c-0.488,3.875-6.097,3.875-6.585,0
				c-6.472-51.371-18.54-63.44-69.911-69.911c-3.875-0.488-3.875-6.097,0-6.585c51.371-6.472,63.44-18.54,69.911-69.911
				c0.488-3.875,6.097-3.875,6.585,0c6.472,51.371,18.54,63.44,69.911,69.911
				C1403.952,1034.554,1403.952,1040.163,1400.077,1040.651z"/> -->
			<!-- <path style="fill:#FFBB4D;" d="M1767.127,874.2c-103.725,13.067-128.093,37.435-141.16,141.16
				c-0.986,7.824-12.311,7.824-13.296,0c-13.068-103.725-37.435-128.093-141.16-141.16c-7.824-0.986-7.824-12.31,0-13.296
				c103.725-13.067,128.093-37.435,141.16-141.16c0.986-7.824,12.311-7.824,13.296,0c13.067,103.725,37.435,128.093,141.16,141.16
				C1774.951,861.889,1774.951,873.214,1767.127,874.2z"/> -->
			<!-- <path style="fill:#FFBB4D;" d="M1202.151,754.473c-103.725,13.067-128.093,37.435-141.16,141.16
				c-0.986,7.824-12.311,7.824-13.296,0c-13.067-103.725-37.435-128.093-141.16-141.16c-7.824-0.986-7.824-12.31,0-13.296
				c103.725-13.067,128.093-37.435,141.16-141.16c0.986-7.824,12.311-7.824,13.296,0c13.067,103.725,37.435,128.093,141.16,141.16
				C1209.975,742.163,1209.975,753.487,1202.151,754.473z"/> -->
		</g>
		<!-- <ellipse style="fill:#D8D8D8;" cx="1100" cy="1945.892" rx="516.235" ry="24.108"/> -->
	</g>
</g>
</svg>
