<svg width="377" height="91" viewBox="0 0 377 91" fill="none" xmlns="http://www.w3.org/2000/svg">
<path fill-rule="evenodd" clip-rule="evenodd" d="M63.897 80.8314C56.8317 93.069 39.1683 93.0689 32.103 80.8314L2.48666 29.5344C-4.57867 17.2969 4.25301 2.00002 18.3837 2.00002L77.6164 2.00003C91.747 2.00003 100.579 17.2969 93.5133 29.5344L63.897 80.8314ZM37.765 77.5625C42.3139 85.4415 53.6861 85.4415 58.2351 77.5625L87.8514 26.2655C92.4003 18.3866 86.7142 8.53788 77.6164 8.53788L18.3837 8.53787C9.28584 8.53787 3.5997 18.3866 8.14861 26.2655L37.765 77.5625Z" fill="white"/>
<circle cx="47.9998" cy="37.4553" r="12.2615" transform="rotate(-180 47.9998 37.4553)" stroke="white" stroke-width="6.5"/>
<path d="M48.3066 25.1938C23.9299 25.1938 21.0056 55.0476 23.937 60.139" stroke="white" stroke-width="6.5"/>
<path d="M37.2715 43.4327C49.1955 64.0857 76.189 52.8776 79.1137 47.8775" stroke="white" stroke-width="6.5"/>
<path d="M58.7287 43.4327C71.0881 22.0256 47.1069 5.21443 41.2561 5.26887" stroke="white" stroke-width="6.5"/>
<path d="M140.536 27.88V20.84H176.184V27.88H162.232V65H154.424V27.88H140.536ZM180.357 65V35.56C181.893 32.7866 184.837 31.4 189.189 31.4H195.909L199.237 33.896V37.864H190.469C189.231 37.864 188.357 38.184 187.845 38.824V65H180.357ZM205.547 25.704V18.152H213.291V25.704H205.547ZM205.675 65V31.4H213.163V65H205.675ZM219.091 32.552L219.859 31.4H226.259L234.771 58.472H235.667L244.179 31.4H250.643L251.411 32.552L240.851 65H229.651L219.091 32.552ZM257.297 25.704V18.152H265.041V25.704H257.297ZM257.425 65V31.4H264.913V65H257.425ZM274.169 54.888V31.4H281.657V55.528C281.657 57.4906 282.638 58.472 284.601 58.472H295.225V31.4H302.649V65H284.281C277.54 65 274.169 61.6293 274.169 54.888ZM312.238 65V31.4H350.51C357.208 31.4 360.558 34.7706 360.558 41.512V65H353.134V40.872C353.134 38.8666 352.131 37.864 350.126 37.864H340.142V65H332.654V37.864H319.726V65H312.238Z" fill="white"/>
</svg>